<?xml version="1.0"?>
<svg xmlns="http://www.w3.org/2000/svg" xmlns:xlink="http://www.w3.org/1999/xlink" width="245mm" height="94mm"
    version="1.1" viewBox="0 0 245 94">
    <rect width="245" height="94" fill="#fff" />
    <rect x="2" y="56" width="240" height="35" fill="#ff9" />
    <g font-family="Times" font-size="9px" text-anchor="middle">
        <g id="d">
            <path d="m32 56v6c0 2-1 3-3 3h-20c-2 0-3-1-3-3v-6" fill="#fc9" stroke="#000" stroke-width=".5" />
            <switch><text x="20" y="62" id="trsvg12">
                    <tspan id="trsvg1">p+</tspan>
                </text></switch>
        </g>
        <g id="c">
            <path d="m63 56v6c0 2-1 3-3 3h-20c-2 0-3-1-3-3v-6" fill="#36f" stroke="#000" stroke-width=".5" />
            <switch><text x="50" y="62" fill="#fff" id="trsvg13">
                    <tspan id="trsvg2">n+</tspan>
                </text></switch>
        </g>
        <path d="m122 56v17c0 3 2 5 5 5h104c3 0 5-2 5-5v-17" fill="#8ff" stroke="#000" stroke-width=".5" />
        <g id="f" stroke-width=".5" stroke="#000">
            <rect x="58" y="53" width="34" height="3" fill="#888" />
            <rect x="58" y="50" width="34" height="3" fill="none" />
        </g>
        <g id="a" stroke="#000" stroke-width=".5">
            <path d="m70 49h8" stroke-width="1.5" />
            <path d="m74 38v11" fill="#fed" />
            <circle cx="74" cy="38" r="2" fill="#fff" />
        </g>
        <use transform="translate(-55 6)" xlink:href="#a" />
        <use transform="translate(-23 6)" xlink:href="#a" />
        <use transform="translate(24 6)" xlink:href="#a" />
        <use transform="translate(62 6)" xlink:href="#a" />
        <use transform="translate(85)" xlink:href="#a" />
        <use transform="translate(109 6)" xlink:href="#a" />
        <use transform="translate(142 6)" xlink:href="#a" />
        <use transform="translate(85)" xlink:href="#f" />
        <path id="b" d="m58 14c0 10-53 1-57 8 1-8 56 0 57-8z" />
        <use transform="matrix(-1 0 0 1 236 0)" xlink:href="#b" />
        <use transform="matrix(-1 0 0 1 116 0)" xlink:href="#b" />
        <use transform="translate(120)" xlink:href="#b" />
        <g id="e">
            <switch><text x="51" y="39" id="trsvg14">
                    <tspan id="trsvg3">S</tspan>
                </text></switch>
            <switch><text x="74" y="33" id="trsvg15">
                    <tspan id="trsvg4">G</tspan>
                </text></switch>
            <switch><text x="98" y="39" id="trsvg16">
                    <tspan id="trsvg5">D</tspan>
                </text></switch>
        </g>
        <switch><text x="19" y="39" id="trsvg17">
                <tspan id="trsvg6">B</tspan>
            </text></switch>
        <use transform="translate(85)" xlink:href="#e" />
        <switch><text x="216" y="39" id="trsvg18">
                <tspan id="trsvg7">B</tspan>
            </text></switch>
        <switch><text x="58" y="11" id="trsvg19">
                <tspan id="trsvg8">NMOS</tspan>
            </text></switch>
        <switch><text x="178" y="11" id="trsvg20">
                <tspan id="trsvg9">PMOS</tspan>
            </text></switch>
        <use transform="translate(166)" xlink:href="#c" />
        <use transform="translate(48)" xlink:href="#c" />
        <use transform="translate(119)" xlink:href="#d" />
        <use transform="translate(165)" xlink:href="#d" />
        <path d="m2 91h240m-240-35h240" stroke="#000" stroke-width=".5" />
        <switch><text x="179" y="75" id="trsvg21-ca" systemLanguage="ca">
                <tspan id="trsvg10-ca">pou n</tspan>
            </text><text x="179" y="75" id="trsvg21">
                <tspan id="trsvg10">n-well</tspan>
            </text></switch>
        <switch><text x="52" y="83" id="trsvg22-ca" systemLanguage="ca">
                <tspan id="trsvg11-ca">substrat p</tspan>
            </text><text x="52" y="83" id="trsvg22">
                <tspan id="trsvg11">p-substrate</tspan>
            </text></switch>
    </g>
</svg>